PathFileType	4	(X/Y/Z)	Patient4_TMGait_0pt4_02_right_21.trc.trc
DataRate	CameraRate	NumFrames	NumMarkers	Units	OrigDataRate	OrigDataStartFrame	OrigNumFrames
73.298429319372	73.298429319372	6	33	mm	73.298429319372	18	       141
Frame#	Time	Sacral			L.Shoulder			Chest			R.Shoulder			Neck			R.ASIS			L.ASIS			R.Thigh.Superior			R.Thigh.Lateral			R.Thigh.Inferior			R.Patella			L.Thigh.Superior			L.Thigh.Lateral			L.Thigh.Inferior			L.Patella			L.Shank.Superior			L.Shank.Lateral			L.Shank.Inferior			R.Shank.Superior			R.Shank.Lateral			R.Shank.Inferior			R.Heel			R.Midfoot.Superior			R.Midfoot.Lateral			R.Toe			L.Heel			L.Midfoot.Lateral			L.Midfoot.Superior			L.Toe			L.Elbow			L.Wrist			R.Elbow			R.Wrist			
		X1	Y1	Z1	X2	Y2	Z2	X3	Y3	Z3	X4	Y4	Z4	X5	Y5	Z5	X6	Y6	Z6	X7	Y7	Z7	X8	Y8	Z8	X9	Y9	Z9	X10	Y10	Z10	X11	Y11	Z11	X12	Y12	Z12	X13	Y13	Z13	X14	Y14	Z14	X15	Y15	Z15	X16	Y16	Z16	X17	Y17	Z17	X18	Y18	Z18	X19	Y19	Z19	X20	Y20	Z20	X21	Y21	Z21	X22	Y22	Z22	X23	Y23	Z23	X24	Y24	Z24	X25	Y25	Z25	X26	Y26	Z26	X27	Y27	Z27	X28	Y28	Z28	X29	Y29	Z29	X30	Y30	Z30	X31	Y31	Z31	X32	Y32	Z32	X33	Y33	Z33	

18	27.721928571429	879.340163609067	1002.991245008864	415.603305103172	1068.053791197795	1429.651362114565	231.259090424588	1153.527090367625	1371.729481629219	405.320612097583	1050.816231971780	1447.946201074989	566.965117715111	1031.481032892921	1497.276004644521	384.062374865230	1101.809952133870	949.334043899123	550.093875066911	1106.148341907875	964.133281204533	274.004762729073	1167.192709819542	761.559224517333	531.856465847405	1112.263659260775	646.479396179271	607.643756464609	1199.918637434555	600.631942709882	530.275958264250	1228.068879310415	522.627282122049	547.970762798968	1120.786159361797	740.998338492574	305.524226588902	1012.419470232197	637.835957622955	240.248297136934	1078.598011599091	550.067376649740	305.455132165640	1066.681833102285	484.450743492278	314.815817344577	1038.344410053448	415.322164374733	307.319445983431	942.047408080041	304.249008938135	258.821780023298	990.846144249502	192.631324910181	333.073140671091	1216.529373747969	438.288710717218	561.320969308502	1168.253326516573	324.657504915235	628.386755274322	1242.657972586111	240.548623039999	579.377055385624	1160.571174050170	48.988609078975	555.739029496815	1321.537270815149	128.297910964056	593.856069177946	1246.356382202781	49.138937325158	627.552301286477	1447.366282774631	95.337269375867	615.988521038678	859.381657984627	39.154140283340	382.067987398542	931.486080974111	34.907305841648	299.773256811826	1015.296483671364	96.232140133118	324.705706903840	1143.346985742116	44.647094049941	294.825945248023	1154.846063488691	1101.842347765350	88.521920563839	1407.027899327465	1041.269349040056	116.342454081850	916.108430925738	1134.936596625177	688.811675792848	899.627104947280	873.618763852063	701.091321069687	
19	27.735571428571	880.084149587998	1002.345162714580	416.679755999620	1069.247473007053	1429.164446223634	233.401886503145	1153.986665843995	1371.202557972297	407.779850659871	1050.575328335667	1447.438464999620	568.970768654636	1031.885748776135	1496.633626037712	386.112779707272	1102.095217258684	948.355816377600	552.214158019547	1107.366316297422	963.732214794238	276.004661163608	1167.838814727246	760.992818276372	533.600939416683	1111.971230377995	644.582425247388	607.077872582943	1200.680422067067	600.003233309435	530.461621609600	1228.113223413910	521.433126860746	547.021933961966	1119.806505347327	739.890495009798	306.956360863792	1010.434887179432	637.786209776820	241.202589786731	1075.546530174718	549.388785130420	306.453922254558	1063.085314906096	483.862703629519	315.614533626992	1034.358645105716	415.019572944252	307.944214286709	937.538831305854	304.541537553767	259.180892761235	985.747077778572	192.509474383609	333.207686648168	1215.772557350157	436.217846044221	559.309621294070	1165.913801670418	322.638740307436	624.969562855448	1239.370923243096	238.227719269103	575.612189187393	1155.211330930753	48.203339190350	550.447565750048	1316.620808102884	125.454824785011	589.182902638693	1240.562611008345	47.485713044760	622.644263172631	1441.901072165411	91.261050238037	611.846218647227	853.849731903852	39.200132844261	382.020008230757	925.950916839905	34.910277365948	299.752083819063	1009.786878452695	96.194524067200	324.719004820333	1137.808370317237	44.572842257796	294.854920943266	1155.113960570876	1101.711723652076	89.677291796364	1407.930783448535	1044.531264204105	117.329550793767	912.217511904475	1136.439548653067	690.169909861850	893.862815502528	875.247031115427	702.202298084185	
20	27.749214285714	880.990809338598	1001.564328894482	418.073538336820	1070.369893597826	1428.573418556620	235.728264905667	1154.411785977049	1370.659545597595	410.433895779490	1050.221779831456	1446.856084115685	571.157884142944	1032.191780636651	1495.892056349881	388.329439698293	1102.688134537099	947.270536051396	554.491951533165	1108.663189236142	963.332536838571	278.156296439878	1169.228730561146	760.515838436189	535.177239344916	1112.495717641486	642.642906255757	606.218127000762	1202.179558081751	599.383374288224	530.348364217692	1228.704445459162	519.847017810436	545.677932877654	1118.955659321089	738.722095871811	308.301423502663	1008.586924413457	637.697046322050	242.269209059110	1072.797768631166	548.670811994704	307.406195395895	1059.844648066613	483.173214811750	316.402380423501	1030.655822682625	414.636402791067	308.579763431003	933.180172175607	304.845961909313	259.607853169248	980.718272375618	192.333456613446	333.339686023152	1214.997856983787	433.591423049291	556.937447562797	1162.898833752191	320.529762994714	621.468285961541	1234.446035049296	235.228123771962	571.575016368067	1146.593148465466	47.547031968399	545.549895070175	1309.077258028420	121.687229243865	584.131035489302	1231.730964352057	45.652499837398	617.889657153343	1433.648490415014	85.449477057644	607.062170153921	848.323170945921	39.234846180460	381.971532341086	920.421612354229	34.914336409878	299.736236066123	1004.281549413271	96.154731789186	324.738745512960	1132.279093161806	44.472804742052	294.883059721982	1155.170920481887	1101.420873473589	91.029075057205	1408.432114581891	1046.812868944649	118.546682573788	908.993278143843	1137.510452386070	691.765784098940	889.946821032706	876.316642577329	703.502054484376	
21	27.762857142857	882.059787308227	1000.651498987167	419.803684832232	1071.383683226316	1427.881577962149	238.241186577724	1154.818572105349	1370.098172299013	413.262710441788	1049.811784452810	1446.180833032712	573.541803567017	1032.414092486244	1495.054991120046	390.726334751373	1103.615572822196	946.077731961061	556.864177964544	1110.017551366347	962.935777764007	280.417284049047	1171.216669295675	759.957341239085	536.509519934374	1113.648643943763	640.667932406273	605.151879256457	1204.104235830217	598.647928245286	529.906836902219	1229.563061451464	517.864295834950	543.930647709979	1118.278406290708	737.501548923969	309.519098633745	1006.914380797818	637.567306052702	243.448780738066	1070.381928912344	547.911057023338	308.325738952317	1056.997043051287	482.374473699121	317.197805681629	1027.266633838007	414.167441817847	309.243901391882	928.999806205349	305.159973159775	260.113177497239	975.769364527626	192.096607080199	333.481494014883	1214.128220606224	430.519198572871	554.318946343116	1159.448642957497	318.332743932806	618.086102900618	1228.348297557169	231.715382208868	567.459509374272	1135.689826505837	46.902603901764	541.315641058757	1299.698279303492	117.344768228223	578.945882302931	1220.859745101528	43.755428011430	613.539351041794	1423.516318476165	78.585667851713	601.848694626794	842.802390335898	39.257270881006	381.922845365861	914.902042212609	34.918340058656	299.727852294806	998.783516706356	96.114469184640	324.767386515414	1126.766511654927	44.340336076989	294.908559187733	1155.031814807721	1100.966748799983	92.594150397015	1408.567820268678	1048.074751222451	120.006318643887	906.495679438201	1138.078253871904	693.596631431905	887.800787821123	876.763941029103	704.995405449776	
22	27.776500000000	883.283746407421	999.628516094366	421.871309270206	1072.255247445836	1427.115783504914	240.942398833565	1155.225187493400	1369.530666891114	416.242805048755	1049.410507846911	1445.410860587740	576.136810761024	1032.575103101230	1494.146202362970	393.319415318861	1104.881308906192	944.803862599377	559.269911347825	1111.410604543816	962.550295852785	282.750465169423	1173.618509499389	759.191809816376	537.542801576790	1115.228816839911	638.699852530585	603.994445548960	1206.141879183648	597.725506259405	529.137411383231	1230.434769963706	515.542326320033	541.837880893375	1117.819260884155	736.251475777403	310.599685449127	1005.458875747539	637.403751828964	244.747978260474	1068.324410863456	547.116507252593	309.242373195583	1054.574761701095	481.468370913268	318.025668442395	1024.212654367796	413.617339050438	309.960246358030	925.019977954129	305.492271252196	260.711107903546	970.910419657224	191.802713625727	333.645848785529	1213.113846612077	427.168724623913	551.604204006101	1155.822440973703	316.091305499241	615.014571592338	1221.591086877945	227.919725734842	563.471848102443	1123.557225326388	46.211608136217	537.922624192685	1289.316692284870	112.833653376781	573.900355770783	1208.984108281002	41.937937719922	609.799717406379	1412.440287632618	71.423839491057	596.516898584397	837.287550925425	39.276489719778	381.873062901347	909.396919272195	34.923344117601	299.728785033257	993.299779304483	96.076770274280	324.804306262149	1121.279521041676	44.168173944648	294.928566783343	1154.701667501435	1100.361555759183	94.393859124863	1408.355093312692	1048.288027563722	121.712962889647	904.801250859785	1138.096063125764	695.665323333617	887.350984965300	876.564353855817	706.674984153883	
23	27.790142857143	884.646765852220	998.539676060355	424.257059978434	1072.961124530222	1426.327258273340	243.830359896882	1155.649434811586	1368.984889520185	419.348508130090	1049.083999327158	1444.564442245791	578.952036076228	1032.701773229193	1493.210431532300	396.122273280943	1106.462029441447	943.501742745709	561.660278357763	1112.824527064967	962.192397627326	285.129492142846	1176.233413776554	758.161646519930	538.253109821648	1117.051783069075	636.814065184697	602.880246220572	1208.022891478688	596.608760490798	528.079692290396	1231.127969813049	512.996853019827	539.527851363524	1117.615143919013	735.011473237077	311.570182473634	1004.263641891848	637.220827144620	246.178056732819	1066.651434678427	546.304787887015	310.196806081248	1052.610299872834	480.466349925539	318.911176542320	1021.512219244820	413.000123786919	310.752407400957	921.259978087245	305.863908247194	261.417015070632	966.155789441149	191.467504827985	333.842830504043	1211.944767520564	423.743486423125	548.965906643023	1152.272518261805	313.881453867944	612.418822689175	1214.677446642532	224.098503493406	559.810527549364	1111.197470304926	45.470590937945	535.439354441466	1278.713050928482	108.543497233876	569.268550698599	1197.046968524831	40.330912099155	606.807970306762	1401.275554817492	64.653393716297	591.431966738520	831.780082121208	39.316059304438	381.819728137491	903.912403731235	34.934265607708	299.739974706145	987.843552492959	96.045834311273	324.844452121407	1115.828637127563	43.948674430959	294.939108771989	1154.174087853971	1099.634321226438	96.453658116671	1407.788759565557	1047.432974090990	123.661055535336	903.998813123198	1137.545608207002	697.979038657486	888.539991459008	875.731818523737	708.529831432905	
